HIERARCHY
ROOT Hips
{
  OFFSET 0.000 70.097 0.000
  CHANNELS 6 Xposition Yposition Zposition Zrotation Xrotation Yrotation
  JOINT LeftUpLeg
  {
    OFFSET 5.728 1.484 1.583
    CHANNELS 6 Xposition Yposition Zposition Zrotation Xrotation Yrotation
    JOINT LeftLeg
    {
      OFFSET 0.000 -35.708 0.000
      CHANNELS 6 Xposition Yposition Zposition Zrotation Xrotation Yrotation
      JOINT LeftFoot
      {
        OFFSET 0.000 -35.872 0.000
        CHANNELS 6 Xposition Yposition Zposition Zrotation Xrotation Yrotation
        End Site
        {
          OFFSET 0.000 0.000 10.228
        }
      }
    }
  }
  JOINT RightUpLeg
  {
    OFFSET -5.728 1.484 1.583
    CHANNELS 6 Xposition Yposition Zposition Zrotation Xrotation Yrotation
    JOINT RightLeg
    {
      OFFSET 0.000 -35.708 0.000
      CHANNELS 6 Xposition Yposition Zposition Zrotation Xrotation Yrotation
      JOINT RightFoot
      {
        OFFSET 0.000 -35.872 0.000
        CHANNELS 6 Xposition Yposition Zposition Zrotation Xrotation Yrotation
        End Site
        {
          OFFSET 0.000 0.000 10.228
        }
      }
    }
  }
  JOINT Spine
  {
    OFFSET 0.000 34.300 0.000
    CHANNELS 6 Xposition Yposition Zposition Zrotation Xrotation Yrotation
    JOINT Spine1
    {
      OFFSET 0.000 25.000 0.000
      CHANNELS 6 Xposition Yposition Zposition Zrotation Xrotation Yrotation
      JOINT LeftShoulder
      {
        OFFSET 1.800 -0.600 0.200
        CHANNELS 6 Xposition Yposition Zposition Zrotation Xrotation Yrotation
        JOINT LeftArm
        {
          OFFSET 14.583 0.000 0.000
          CHANNELS 6 Xposition Yposition Zposition Zrotation Xrotation Yrotation
          JOINT LeftForeArm
          {
            OFFSET 29.702 0.000 0.000
            CHANNELS 6 Xposition Yposition Zposition Zrotation Xrotation Yrotation
            JOINT LeftHand
            {
              OFFSET 30.511 0.000 0.000
              CHANNELS 6 Xposition Yposition Zposition Zrotation Xrotation Yrotation
              JOINT LeftHandThumb1
              {
                OFFSET 4.877 -1.044 3.608
                CHANNELS 6 Xposition Yposition Zposition Zrotation Xrotation Yrotation
                JOINT LeftHandThumb2
                {
                  OFFSET 2.665 0.000 0.000
                  CHANNELS 6 Xposition Yposition Zposition Zrotation Xrotation Yrotation
                  JOINT LeftHandThumb3
                  {
                    OFFSET 2.543 0.000 0.000
                    CHANNELS 6 Xposition Yposition Zposition Zrotation Xrotation Yrotation
                    End Site
                    {
                      OFFSET 2.667 0.000 0.000
                    }
                  }
                }
              }
              JOINT LeftHandIndex1
              {
                OFFSET 9.232 -0.301 2.144
                CHANNELS 6 Xposition Yposition Zposition Zrotation Xrotation Yrotation
                JOINT LeftHandIndex2
                {
                  OFFSET 4.225 -0.000 -0.000
                  CHANNELS 6 Xposition Yposition Zposition Zrotation Xrotation Yrotation
                  JOINT LeftHandIndex3
                  {
                    OFFSET 2.654 -0.000 0.000
                    CHANNELS 6 Xposition Yposition Zposition Zrotation Xrotation Yrotation
                    End Site
                    {
                      OFFSET 1.958 0.000 -0.000
                    }
                  }
                }
              }
              JOINT LeftHandMiddle1
              {
                OFFSET 8.920 0.000 -0.000
                CHANNELS 6 Xposition Yposition Zposition Zrotation Xrotation Yrotation
                JOINT LeftHandMiddle2
                {
                  OFFSET 4.863 -0.000 0.000
                  CHANNELS 6 Xposition Yposition Zposition Zrotation Xrotation Yrotation
                  JOINT LeftHandMiddle3
                  {
                    OFFSET 2.765 0.000 0.000
                    CHANNELS 6 Xposition Yposition Zposition Zrotation Xrotation Yrotation
                    End Site
                    {
                      OFFSET 2.006 -0.000 0.000
                    }
                  }
                }
              }
              JOINT LeftHandRing1
              {
                OFFSET 8.689 -0.126 -2.087
                CHANNELS 6 Xposition Yposition Zposition Zrotation Xrotation Yrotation
                JOINT LeftHandRing2
                {
                  OFFSET 4.538 -0.000 -0.000
                  CHANNELS 6 Xposition Yposition Zposition Zrotation Xrotation Yrotation
                  JOINT LeftHandRing3
                  {
                    OFFSET 2.305 0.000 0.000
                    CHANNELS 6 Xposition Yposition Zposition Zrotation Xrotation Yrotation
                    End Site
                    {
                      OFFSET 1.923 0.000 -0.000
                    }
                  }
                }
              }
              JOINT LeftHandPinky1
              {
                OFFSET 8.391 -0.817 -3.758
                CHANNELS 6 Xposition Yposition Zposition Zrotation Xrotation Yrotation
                JOINT LeftHandPinky2
                {
                  OFFSET 3.044 -0.000 -0.000
                  CHANNELS 6 Xposition Yposition Zposition Zrotation Xrotation Yrotation
                  JOINT LeftHandPinky3
                  {
                    OFFSET 1.975 -0.000 -0.000
                    CHANNELS 6 Xposition Yposition Zposition Zrotation Xrotation Yrotation
                    End Site
                    {
                      OFFSET 1.667 0.000 0.000
                    }
                  }
                }
              }
            }
          }
        }
      }
      JOINT RightShoulder
      {
        OFFSET -1.800 -0.600 0.200
        CHANNELS 6 Xposition Yposition Zposition Zrotation Xrotation Yrotation
        JOINT RightArm
        {
          OFFSET -14.583 0.000 0.000
          CHANNELS 6 Xposition Yposition Zposition Zrotation Xrotation Yrotation
          JOINT RightForeArm
          {
            OFFSET -29.702 0.000 0.000
            CHANNELS 6 Xposition Yposition Zposition Zrotation Xrotation Yrotation
            JOINT RightHand
            {
              OFFSET -30.511 0.000 0.000
              CHANNELS 6 Xposition Yposition Zposition Zrotation Xrotation Yrotation
              JOINT RightHandThumb1
              {
                OFFSET -4.877 -1.044 3.608
                CHANNELS 6 Xposition Yposition Zposition Zrotation Xrotation Yrotation
                JOINT RightHandThumb2
                {
                  OFFSET -2.665 -0.000 0.000
                  CHANNELS 6 Xposition Yposition Zposition Zrotation Xrotation Yrotation
                  JOINT RightHandThumb3
                  {
                    OFFSET -2.543 0.000 0.000
                    CHANNELS 6 Xposition Yposition Zposition Zrotation Xrotation Yrotation
                    End Site
                    {
                      OFFSET -2.667 0.000 -0.000
                    }
                  }
                }
              }
              JOINT RightHandIndex1
              {
                OFFSET -9.232 -0.301 2.144
                CHANNELS 6 Xposition Yposition Zposition Zrotation Xrotation Yrotation
                JOINT RightHandIndex2
                {
                  OFFSET -4.225 0.000 0.000
                  CHANNELS 6 Xposition Yposition Zposition Zrotation Xrotation Yrotation
                  JOINT RightHandIndex3
                  {
                    OFFSET -2.654 0.000 0.000
                    CHANNELS 6 Xposition Yposition Zposition Zrotation Xrotation Yrotation
                    End Site
                    {
                      OFFSET -1.958 -0.000 0.000
                    }
                  }
                }
              }
              JOINT RightHandMiddle1
              {
                OFFSET -8.920 -0.000 0.000
                CHANNELS 6 Xposition Yposition Zposition Zrotation Xrotation Yrotation
                JOINT RightHandMiddle2
                {
                  OFFSET -4.863 0.000 -0.000
                  CHANNELS 6 Xposition Yposition Zposition Zrotation Xrotation Yrotation
                  JOINT RightHandMiddle3
                  {
                    OFFSET -2.765 0.000 0.000
                    CHANNELS 6 Xposition Yposition Zposition Zrotation Xrotation Yrotation
                    End Site
                    {
                      OFFSET -2.006 -0.000 0.000
                    }
                  }
                }
              }
              JOINT RightHandRing1
              {
                OFFSET -8.689 -0.126 -2.087
                CHANNELS 6 Xposition Yposition Zposition Zrotation Xrotation Yrotation
                JOINT RightHandRing2
                {
                  OFFSET -4.538 0.000 0.000
                  CHANNELS 6 Xposition Yposition Zposition Zrotation Xrotation Yrotation
                  JOINT RightHandRing3
                  {
                    OFFSET -2.305 -0.000 0.000
                    CHANNELS 6 Xposition Yposition Zposition Zrotation Xrotation Yrotation
                    End Site
                    {
                      OFFSET -1.923 0.000 -0.000
                    }
                  }
                }
              }
              JOINT RightHandPinky1
              {
                OFFSET -8.391 -0.817 -3.758
                CHANNELS 6 Xposition Yposition Zposition Zrotation Xrotation Yrotation
                JOINT RightHandPinky2
                {
                  OFFSET -3.044 -0.000 0.000
                  CHANNELS 6 Xposition Yposition Zposition Zrotation Xrotation Yrotation
                  JOINT RightHandPinky3
                  {
                    OFFSET -1.975 0.000 0.000
                    CHANNELS 6 Xposition Yposition Zposition Zrotation Xrotation Yrotation
                    End Site
                    {
                      OFFSET -1.667 0.000 0.000
                    }
                  }
                }
              }
            }
          }
        }
      }
      JOINT Neck
      {
        OFFSET 0.000 0.800 0.000
        CHANNELS 6 Xposition Yposition Zposition Zrotation Xrotation Yrotation
        JOINT Head
        {
          OFFSET 0.000 6.645 0.000
          CHANNELS 6 Xposition Yposition Zposition Zrotation Xrotation Yrotation
          End Site
          {
            OFFSET 0.000 14.036 0.000
          }
        }
      }
    }
  }
}
MOTION
Frames:	4
Frame Time:	0.033333
72.36090 79.89384 -182.58945 1.01776 0.60282 -71.86829 8.62761 1.12911 2.19872 2.37555 8.44872 -7.48991 0.00368 -35.18590 -0.01320 -4.57158 -3.49763 24.14735 0.00373 -37.62686 -0.00391 -6.81107 25.92322 15.28185 -3.42305 0.05532 2.21055 -7.37983 -8.76296 -12.84878 -0.00404 -39.72969 -0.00082 1.10235 4.86021 -4.59206 0.00244 -31.37762 -0.00246 1.85310 50.10759 -2.34787 0.00698 31.80947 -0.00252 -1.36074 1.26148 -2.54020 0.00022 23.40767 -0.00018 -1.82074 1.05217 -2.52530 1.65765 -0.27971 -0.17918 -9.78175 -1.08005 6.25913 15.26645 -0.00206 0.00358 -59.76101 5.77736 -13.00118 30.00963 -0.01828 0.00483 -17.57981 5.96242 -8.60384 23.05368 -0.02170 0.03217 -17.83010 7.98824 -8.46955 4.87700 -1.04401 3.60800 -41.57595 -8.45725 -7.72882 2.66501 0.00000 0.00001 0.00000 -0.00000 5.00000 2.54300 0.00000 0.00001 0.00001 0.00000 60.00000 9.23201 -0.30100 2.14400 -80.00000 -0.00000 0.00000 4.22499 -0.00002 -0.00000 -90.00000 -0.00000 0.00000 2.65400 -0.00001 0.00000 -70.00000 0.00000 0.00000 8.92000 0.00000 -0.00000 -80.00000 -0.00000 0.00000 4.86298 -0.00001 0.00000 -90.00000 -0.00000 0.00000 2.76500 0.00001 0.00001 -70.00000 0.00000 0.00000 8.68900 -0.12598 -2.08700 -80.00000 -0.00000 0.00000 4.53799 -0.00001 -0.00001 -90.00000 -0.00000 0.00000 2.30501 0.00000 0.00000 -70.00000 0.00000 0.00000 8.39100 -0.81701 -3.75801 -80.00000 -0.00000 0.00000 3.04401 -0.00001 -0.00000 -90.00000 -0.00000 0.00000 1.97501 -0.00001 -0.00001 -70.00000 0.00000 0.00000 -1.49132 -0.82422 -0.17466 28.50626 -3.39942 -6.21160 -15.40574 -0.00658 -0.00094 62.51571 0.32633 10.34082 -26.68458 0.01555 -0.00215 -1.15008 0.11401 -0.18420 -26.24040 0.02768 -0.04361 3.25258 5.03013 24.06940 -4.87700 -1.04401 3.60800 37.43812 21.26626 8.20656 -2.66500 -0.00001 0.00000 -0.00000 0.00000 -5.00001 -2.54298 0.00002 0.00001 0.00001 0.00000 -60.00000 -9.23200 -0.30099 2.14400 80.00000 -0.00000 0.00001 -4.22498 0.00000 0.00001 90.00000 -0.00000 0.00001 -2.65400 0.00001 0.00000 70.00000 -0.00000 0.00001 -8.91998 -0.00002 0.00001 80.00000 -0.00000 0.00001 -4.86299 0.00002 -0.00001 90.00000 -0.00000 0.00001 -2.76501 0.00000 0.00000 70.00000 -0.00000 0.00001 -8.68899 -0.12599 -2.08700 80.00000 -0.00000 0.00001 -4.53800 0.00001 0.00000 90.00000 -0.00000 0.00001 -2.30500 -0.00001 0.00001 70.00000 -0.00000 0.00001 -8.39099 -0.81700 -3.75799 80.00000 -0.00000 0.00001 -3.04399 -0.00001 0.00000 90.00000 -0.00000 0.00001 -1.97501 0.00002 0.00000 70.00000 -0.00000 0.00001 -0.00005 0.76249 -0.00004 0.00044 -0.00008 -0.00073 -0.00182 6.88783 -0.01389 39.57529 31.08068 24.83701 
72.24896 79.95212 -182.75322 0.80312 0.73991 -71.68837 8.62761 1.11682 2.19872 2.85066 8.77549 -7.73019 0.00368 -35.33011 -0.01320 -4.76840 -3.83479 24.25273 0.00373 -37.53601 -0.00391 -6.85901 25.82662 15.43633 -3.42305 0.06879 2.21055 -7.11439 -8.63270 -13.09231 -0.00404 -39.76002 -0.00082 1.18037 5.15054 -4.50155 0.00244 -31.40419 -0.00246 2.42115 49.58711 -3.13975 0.00698 31.80947 -0.00252 -1.29146 1.28375 -2.58629 0.00022 23.39912 -0.00018 -1.80730 1.06949 -2.56614 1.65765 -0.27971 -0.17918 -9.76083 -1.06953 6.20780 15.23143 -0.00206 0.00358 -59.70596 5.84995 -13.13799 30.00283 -0.01828 0.00483 -17.82455 6.06272 -9.18546 23.09401 -0.02170 0.03217 -17.47530 7.44888 -9.40626 4.87700 -1.04401 3.60800 -41.57595 -8.45725 -7.72882 2.66501 0.00000 0.00001 0.00000 -0.00000 5.00000 2.54300 0.00000 0.00001 0.00001 0.00000 60.00000 9.23201 -0.30100 2.14400 -80.00000 -0.00000 0.00000 4.22499 -0.00002 -0.00000 -90.00000 -0.00000 0.00000 2.65400 -0.00001 0.00000 -70.00000 0.00000 0.00000 8.92000 0.00000 -0.00000 -80.00000 -0.00000 0.00000 4.86298 -0.00001 0.00000 -90.00000 -0.00000 0.00000 2.76500 0.00001 0.00001 -70.00000 0.00000 0.00000 8.68900 -0.12598 -2.08700 -80.00000 -0.00000 0.00000 4.53799 -0.00001 -0.00001 -90.00000 -0.00000 0.00000 2.30501 0.00000 0.00000 -70.00000 0.00000 0.00000 8.39100 -0.81701 -3.75801 -80.00000 -0.00000 0.00000 3.04401 -0.00001 -0.00000 -90.00000 -0.00000 0.00000 1.97501 -0.00001 -0.00001 -70.00000 0.00000 0.00000 -1.50569 -0.82422 -0.17466 28.35244 -3.31666 -6.10031 -15.52263 -0.00658 -0.00094 62.72733 0.34916 10.19338 -26.68458 0.01555 -0.00215 -1.20331 0.24661 0.55534 -25.45406 0.02768 -0.03022 6.41544 7.98772 21.36712 -4.87700 -1.04401 3.60800 37.43812 21.26626 8.20656 -2.66500 -0.00001 0.00000 -0.00000 0.00000 -5.00001 -2.54298 0.00002 0.00001 0.00001 0.00000 -60.00000 -9.23200 -0.30099 2.14400 80.00000 -0.00000 0.00001 -4.22498 0.00000 0.00001 90.00000 -0.00000 0.00001 -2.65400 0.00001 0.00000 70.00000 -0.00000 0.00001 -8.91998 -0.00002 0.00001 80.00000 -0.00000 0.00001 -4.86299 0.00002 -0.00001 90.00000 -0.00000 0.00001 -2.76501 0.00000 0.00000 70.00000 -0.00000 0.00001 -8.68899 -0.12599 -2.08700 80.00000 -0.00000 0.00001 -4.53800 0.00001 0.00000 90.00000 -0.00000 0.00001 -2.30500 -0.00001 0.00001 70.00000 -0.00000 0.00001 -8.39099 -0.81700 -3.75799 80.00000 -0.00000 0.00001 -3.04399 -0.00001 0.00000 90.00000 -0.00000 0.00001 -1.97501 0.00002 0.00000 70.00000 -0.00000 0.00001 -0.00005 0.76249 -0.00004 0.00044 -0.00008 -0.00073 -0.00182 6.88783 -0.01389 38.12239 30.23303 26.00344 
72.16308 80.01283 -182.90717 0.63288 0.84916 -71.52689 8.62824 1.11323 2.19872 3.25166 9.03870 -7.93671 0.00368 -35.49385 -0.01320 -4.93636 -4.14584 24.35735 0.00373 -37.44011 -0.00391 -6.88430 25.76159 15.52569 -3.42305 0.07222 2.21055 -6.89957 -8.54391 -13.32088 -0.00404 -39.82697 -0.00082 1.25789 5.40814 -4.50917 0.00244 -31.38973 -0.00246 3.29622 49.06986 -4.34420 0.00698 31.80947 -0.00252 -1.26098 1.30465 -2.61663 0.00022 23.38686 -0.00018 -1.79530 1.09903 -2.59192 1.65574 -0.27971 -0.17918 -9.76235 -1.05364 6.11119 15.21006 -0.00206 0.00358 -59.66055 5.88331 -13.30247 29.98995 -0.01828 0.00483 -18.04763 6.15918 -9.68825 23.12356 -0.02170 0.03217 -17.10407 6.97224 -9.58003 4.87700 -1.04401 3.60800 -41.57595 -8.45725 -7.72882 2.66501 0.00000 0.00001 0.00000 -0.00000 5.00000 2.54300 0.00000 0.00001 0.00001 0.00000 60.00000 9.23201 -0.30100 2.14400 -80.00000 -0.00000 0.00000 4.22499 -0.00002 -0.00000 -90.00000 -0.00000 0.00000 2.65400 -0.00001 0.00000 -70.00000 0.00000 0.00000 8.92000 0.00000 -0.00000 -80.00000 -0.00000 0.00000 4.86298 -0.00001 0.00000 -90.00000 -0.00000 0.00000 2.76500 0.00001 0.00001 -70.00000 0.00000 0.00000 8.68900 -0.12598 -2.08700 -80.00000 -0.00000 0.00000 4.53799 -0.00001 -0.00001 -90.00000 -0.00000 0.00000 2.30501 0.00000 0.00000 -70.00000 0.00000 0.00000 8.39100 -0.81701 -3.75801 -80.00000 -0.00000 0.00000 3.04401 -0.00001 -0.00000 -90.00000 -0.00000 0.00000 1.97501 -0.00001 -0.00001 -70.00000 0.00000 0.00000 -1.51808 -0.82422 -0.17466 28.25104 -3.22383 -5.95716 -15.62586 -0.00658 -0.00094 62.88523 0.39081 10.09216 -26.68458 0.01555 -0.00215 -1.13790 0.35888 1.12060 -24.90708 0.02768 -0.01780 8.80455 9.99938 19.65019 -4.87700 -1.04401 3.60800 37.43812 21.26626 8.20656 -2.66500 -0.00001 0.00000 -0.00000 0.00000 -5.00001 -2.54298 0.00002 0.00001 0.00001 0.00000 -60.00000 -9.23200 -0.30099 2.14400 80.00000 -0.00000 0.00001 -4.22498 0.00000 0.00001 90.00000 -0.00000 0.00001 -2.65400 0.00001 0.00000 70.00000 -0.00000 0.00001 -8.91998 -0.00002 0.00001 80.00000 -0.00000 0.00001 -4.86299 0.00002 -0.00001 90.00000 -0.00000 0.00001 -2.76501 0.00000 0.00000 70.00000 -0.00000 0.00001 -8.68899 -0.12599 -2.08700 80.00000 -0.00000 0.00001 -4.53800 0.00001 0.00000 90.00000 -0.00000 0.00001 -2.30500 -0.00001 0.00001 70.00000 -0.00000 0.00001 -8.39099 -0.81700 -3.75799 80.00000 -0.00000 0.00001 -3.04399 -0.00001 0.00000 90.00000 -0.00000 0.00001 -1.97501 0.00002 0.00000 70.00000 -0.00000 0.00001 -0.00005 0.76249 -0.00004 0.00044 -0.00008 -0.00073 -0.00182 6.88343 -0.01389 36.83260 29.48347 27.23987 
72.03999 80.08576 -183.16364 0.42959 1.08636 -71.43308 8.60748 1.12872 2.19872 3.99268 9.30093 -8.01509 0.00368 -35.66605 -0.01320 -5.32169 -4.48889 24.37230 0.00373 -37.36665 -0.00391 -6.90927 25.68882 15.61893 -3.40652 0.06734 2.21055 -6.41325 -8.46921 -13.45808 -0.00404 -39.91608 -0.00082 1.22217 5.62214 -4.59065 0.00244 -31.35473 -0.00246 3.90073 48.62118 -5.18870 0.00698 31.80073 -0.00252 -1.18247 1.33642 -2.59994 0.00022 23.36839 -0.00018 -1.72687 1.14079 -2.57207 1.65348 -0.27971 -0.17555 -9.74397 -1.03261 5.99740 15.18788 -0.00206 0.00358 -59.61495 5.88908 -13.48567 29.97329 -0.01828 0.00483 -18.19922 6.27598 -10.04287 23.13762 -0.02170 0.03217 -17.19338 6.84726 -9.36306 4.87700 -1.04401 3.60800 -41.57595 -8.45725 -7.72882 2.66501 0.00000 0.00001 0.00000 -0.00000 5.00000 2.54300 0.00000 0.00001 0.00001 0.00000 60.00000 9.23201 -0.30100 2.14400 -80.00000 -0.00000 0.00000 4.22499 -0.00002 -0.00000 -90.00000 -0.00000 0.00000 2.65400 -0.00001 0.00000 -70.00000 0.00000 0.00000 8.92000 0.00000 -0.00000 -80.00000 -0.00000 0.00000 4.86298 -0.00001 0.00000 -90.00000 -0.00000 0.00000 2.76500 0.00001 0.00001 -70.00000 0.00000 0.00000 8.68900 -0.12598 -2.08700 -80.00000 -0.00000 0.00000 4.53799 -0.00001 -0.00001 -90.00000 -0.00000 0.00000 2.30501 0.00000 0.00000 -70.00000 0.00000 0.00000 8.39100 -0.81701 -3.75801 -80.00000 -0.00000 0.00000 3.04401 -0.00001 -0.00000 -90.00000 -0.00000 0.00000 1.97501 -0.00001 -0.00001 -70.00000 0.00000 0.00000 -1.52723 -0.82561 -0.17466 28.19597 -3.13385 -5.80774 -15.70360 -0.00658 -0.00094 63.02697 0.41371 10.01905 -26.68458 0.01555 -0.00215 -1.03366 0.41164 1.56875 -24.53406 0.02768 -0.00782 10.14674 10.96428 18.59221 -4.87700 -1.04401 3.60800 37.43812 21.26626 8.20656 -2.66500 -0.00001 0.00000 -0.00000 0.00000 -5.00001 -2.54298 0.00002 0.00001 0.00001 0.00000 -60.00000 -9.23200 -0.30099 2.14400 80.00000 -0.00000 0.00001 -4.22498 0.00000 0.00001 90.00000 -0.00000 0.00001 -2.65400 0.00001 0.00000 70.00000 -0.00000 0.00001 -8.91998 -0.00002 0.00001 80.00000 -0.00000 0.00001 -4.86299 0.00002 -0.00001 90.00000 -0.00000 0.00001 -2.76501 0.00000 0.00000 70.00000 -0.00000 0.00001 -8.68899 -0.12599 -2.08700 80.00000 -0.00000 0.00001 -4.53800 0.00001 0.00000 90.00000 -0.00000 0.00001 -2.30500 -0.00001 0.00001 70.00000 -0.00000 0.00001 -8.39099 -0.81700 -3.75799 80.00000 -0.00000 0.00001 -3.04399 -0.00001 0.00000 90.00000 -0.00000 0.00001 -1.97501 0.00002 0.00000 70.00000 -0.00000 0.00001 -0.00005 0.76249 -0.00004 0.00044 -0.00008 -0.00073 -0.00182 6.87799 -0.01389 36.02517 29.01385 28.02799 
